<svg width="1200" height="1200" viewBox="0 0 1200 1200" fill="none" xmlns="http://www.w3.org/2000/svg">
<circle cx="600" cy="600" r="600" fill="#56CD69"/>
<mask id="mask0_69_797" style="mask-type:alpha" maskUnits="userSpaceOnUse" x="0" y="0" width="1200" height="1200">
<circle cx="600" cy="600" r="600" fill="#CB3737"/>
</mask>
<g mask="url(#mask0_69_797)">
<path d="M370.745 401.839C171.546 560.785 138.797 997.952 147.414 1174.56L413.475 1397.04H1014.34C998.693 1355.08 970.874 1232.25 984.801 1076.64C1002.21 882.138 933.102 537.874 855.554 445.394C778.005 352.914 619.743 203.156 370.745 401.839Z" fill="#FFD469" stroke="black" stroke-width="33.9493"/>
</g>
<path d="M677.441 127.749C543.64 186.773 555.375 254.485 557.334 303.303C570.552 300.411 623.773 308.262 627.188 301.359C631.456 292.73 743.087 99.5369 677.441 127.749Z" fill="#F7CC60" stroke="black" stroke-width="26.6745"/>
<path d="M787.137 192.235C640.896 191.722 624.07 258.352 606 303.745C619.251 306.48 689.905 310.984 695.833 306.067C703.242 299.922 858.582 193.169 787.137 192.235Z" fill="#F7CC60" stroke="black" stroke-width="26.6745"/>
<path d="M449.551 974.54C319.097 971.325 281.508 924.204 279.02 901.045C315.193 857.982 792.336 825.254 810.71 843.627C829.083 862.001 751.569 914.826 726.305 928.032C701.041 941.238 612.618 978.56 449.551 974.54Z" fill="#FF8A00" stroke="black" stroke-width="26.6745"/>
<path d="M317.487 907.936C238.48 907.017 284.568 876.547 317.487 861.427C356.072 843.972 446.103 808.986 486.296 793.674C496.631 764.965 531.656 713.289 564.385 715.586C597.113 717.882 610.893 793.674 629.267 808.029C647.641 822.383 831.378 802.861 805.54 844.202C779.702 885.543 416.246 909.084 317.487 907.936Z" fill="#FF8A00" stroke="black" stroke-width="26.6745"/>
<path d="M212.258 511.662C386.658 463.531 794.619 481.966 976.799 497.2C984.917 542.645 991.385 637.383 900.876 715.53C810.367 793.677 715.032 754.266 664.825 737.665C624.659 724.383 584.493 636.693 569.43 594.507C512.768 719.275 430.078 731.24 336.28 736.974C242.481 742.708 194.528 571.667 188.859 551.375C184.324 535.142 202.569 518.135 212.258 511.662Z" fill="black" stroke="black" stroke-width="1.21248"/>
<path d="M190.215 351.93L179.898 324.05L169.582 351.93L157.524 384.517L124.937 396.575L97.0569 406.892L124.937 417.208L157.524 429.266L169.582 461.853L179.898 489.733L190.215 461.853L202.273 429.266L234.86 417.208L262.74 406.892L234.86 396.575L202.273 384.517L190.215 351.93Z" fill="#FFD469" stroke="black" stroke-width="22"/>
<path d="M995.741 237.328L985.424 209.449L975.108 237.328L962.154 272.335L927.147 285.289L899.268 295.605L927.147 305.921L962.154 318.875L975.108 353.882L985.424 381.761L995.741 353.882L1008.69 318.875L1043.7 305.921L1071.58 295.605L1043.7 285.289L1008.69 272.335L995.741 237.328Z" fill="#FFD469" stroke="black" stroke-width="22"/>
</svg>
